<?xml version="1.0" encoding="UTF-8"?>
<svg version="1.1" xmlns="http://www.w3.org/2000/svg" width="256" height="256">
<path d="M0 0 C2.80911463 3.93499548 2.36822671 7.58364928 2.29522705 12.30462646 C2.29581116 13.2903212 2.29639526 14.27601593 2.29699707 15.2915802 C2.29421064 18.54921703 2.26309139 21.80593857 2.23175049 25.06341553 C2.22429011 27.32213847 2.21859622 29.58086788 2.21459961 31.83959961 C2.19932742 37.78440218 2.16003146 43.7288138 2.11578369 49.67346191 C2.07486545 55.73959057 2.05659593 61.80578239 2.03643799 67.87200928 C1.99353914 79.77452479 1.92526826 91.67675015 1.84112549 103.57904053 C3.09757874 103.57015808 4.35403198 103.56127563 5.64855957 103.55212402 C17.47904401 103.47110056 29.30947229 103.411105 41.14017105 103.37179184 C47.22273557 103.35090119 53.30507643 103.32255608 59.38751221 103.27728271 C65.25544183 103.23387843 71.12315608 103.20991456 76.99123383 103.19953156 C79.23199607 103.1921305 81.47274629 103.17767829 83.71341705 103.1561203 C86.8477187 103.12715895 89.98112602 103.12308156 93.11553955 103.12493896 C94.04558304 103.11055786 94.97562653 103.09617676 95.93385315 103.08135986 C102.18156516 103.12152459 102.18156516 103.12152459 105.41577148 105.36499023 C107.61859674 108.78671276 107.43239791 112.20650874 107.34112549 116.14154053 C107.32904053 116.97781982 107.31695557 117.81409912 107.30450439 118.67572021 C106.40718413 147.74889692 92.48515382 175.16706761 71.63018799 195.11810303 C46.77482676 217.04930411 16.7977951 226.44486095 -16.15887451 224.57904053 C-29.48221885 223.44462534 -42.55134365 219.90282347 -54.51824951 213.89154053 C-56.96589883 212.43067624 -56.96589883 212.43067624 -59.15887451 212.57904053 C-59.73637451 213.69279053 -60.31387451 214.80654053 -60.90887451 215.95404053 C-62.15652626 218.10156653 -63.04633436 219.48590385 -64.97137451 221.07904053 C-69.44116319 222.10070651 -73.22931872 221.12916073 -77.11590576 218.82904053 C-78.52936279 217.71529053 -78.52936279 217.71529053 -79.97137451 216.57904053 C-81.00391357 215.76564209 -82.03645264 214.95224365 -83.10028076 214.11419678 C-87.58353058 210.39819533 -91.92092297 206.57194045 -96.15887451 202.57904053 C-96.83434326 201.9680249 -97.50981201 201.35700928 -98.20574951 200.72747803 C-114.18562716 185.70639303 -124.43002245 164.46701441 -130.15887451 143.57904053 C-130.49789795 142.40470459 -130.83692139 141.23036865 -131.18621826 140.02044678 C-136.24853536 118.72138911 -136.27780625 88.40038624 -126.15887451 68.57904053 C-124.36199951 66.62200928 -124.36199951 66.62200928 -122.15887451 65.57904053 C-119.14324951 65.50482178 -119.14324951 65.50482178 -115.90887451 65.89154053 C-114.83121826 66.01142334 -113.75356201 66.13130615 -112.64324951 66.25482178 C-111.82340576 66.36181396 -111.00356201 66.46880615 -110.15887451 66.57904053 C-109.6368042 65.5142749 -109.11473389 64.44950928 -108.57684326 63.35247803 C-94.45423375 35.23108438 -71.96486694 14.39062992 -42.06658936 3.84075928 C-37.81706354 2.48091102 -33.52841517 1.4666801 -29.15887451 0.57904053 C-27.51338623 0.24452881 -27.51338623 0.24452881 -25.83465576 -0.09674072 C-5.5986862 -3.68502483 -5.5986862 -3.68502483 0 0 Z " fill="#7ED7F5" transform="translate(133.15887451171875,16.42095947265625)"/>
<path d="M0 0 C2.57016244 -0.18461368 5.09844215 -0.20023739 7.67519283 -0.1677494 C8.65431637 -0.17490471 9.6334399 -0.18206001 10.64223385 -0.18943214 C13.88619481 -0.20637214 17.128784 -0.18688348 20.3727026 -0.16555214 C22.62327851 -0.16638041 24.87385437 -0.16883821 27.12442684 -0.1728611 C31.84482149 -0.17572283 36.56474264 -0.16098195 41.28505611 -0.13356972 C47.33938182 -0.09950638 53.39285943 -0.10549539 59.44722557 -0.12423229 C64.09606665 -0.13479605 68.74471005 -0.12586969 73.39353275 -0.11084747 C75.62588127 -0.10565933 77.85825037 -0.10615509 80.0905962 -0.11239243 C83.21039302 -0.11783614 86.32897219 -0.09749482 89.44863033 -0.07009315 C90.83662586 -0.07988197 90.83662586 -0.07988197 92.25266171 -0.08986855 C98.46560312 0.00303037 98.46560312 0.00303037 101.69827938 2.25426292 C103.90771802 5.67143769 103.7178565 9.09189012 103.62660885 13.02585411 C103.61452389 13.86213341 103.60243893 14.6984127 103.58998775 15.5600338 C102.69266749 44.6332105 88.77063718 72.05138119 67.91567135 92.00241661 C43.06031012 113.9336177 13.08327846 123.32917453 -19.87339115 121.46335411 C-35.15170167 120.16248347 -49.29680636 115.46330818 -62.87339115 108.46335411 C-61.52883417 104.91900984 -59.96110771 101.65536218 -58.10776615 98.35007286 C-57.55475834 97.36200645 -57.00175053 96.37394005 -56.4319849 95.35593224 C-55.536731 93.76941856 -55.536731 93.76941856 -54.62339115 92.15085411 C-54.00077396 91.04290489 -53.37815678 89.93495567 -52.7366724 88.79343224 C-47.95225249 80.30758485 -43.0583318 71.88834594 -38.12632084 63.48752403 C-33.95257652 56.36134972 -29.8893847 49.179461 -25.87339115 41.96335411 C-19.04529584 29.69615783 -12.01840787 17.54861113 -4.87339115 5.46335411 C-4.54638218 4.60240639 -4.21937321 3.74145866 -3.88245487 2.85442162 C-1.87339115 0.46335411 -1.87339115 0.46335411 0 0 Z " fill="#FF435A" transform="translate(136.87339115142822,119.53664588928223)"/>
<path d="M0 0 C2.80911463 3.93499548 2.36822671 7.58364928 2.29522705 12.30462646 C2.29581116 13.2903212 2.29639526 14.27601593 2.29699707 15.2915802 C2.29421064 18.54921703 2.26309139 21.80593857 2.23175049 25.06341553 C2.22429011 27.32213847 2.21859622 29.58086788 2.21459961 31.83959961 C2.19932742 37.78440218 2.16003146 43.7288138 2.11578369 49.67346191 C2.07486545 55.73959057 2.05659593 61.80578239 2.03643799 67.87200928 C1.99353914 79.77452479 1.92526826 91.67675015 1.84112549 103.57904053 C-2.76105061 103.0102023 -6.9960941 102.145054 -11.40911865 100.72821045 C-12.60851074 100.34618973 -13.80790283 99.96416901 -15.04364014 99.5705719 C-16.34379561 99.15029583 -17.64392507 98.7299393 -18.94403076 98.30950928 C-20.31162361 97.87191758 -21.67938462 97.43485113 -23.04730225 96.99827576 C-26.69026665 95.83412981 -30.33105411 94.66332069 -33.97133255 93.49080658 C-39.9648302 91.5615595 -45.96147473 89.64209026 -51.95745659 87.72058105 C-54.18672765 87.00591076 -56.41573275 86.29041511 -58.64472961 85.57489014 C-67.0618616 82.87523916 -75.49029984 80.21796067 -83.94012451 77.62200928 C-85.73562148 77.06774626 -87.53111329 76.51346657 -89.32659912 75.95916748 C-91.75240446 75.21093026 -94.17906101 74.46676653 -96.6100769 73.73562622 C-98.76638317 73.08696681 -100.91795063 72.42447086 -103.06903076 71.75872803 C-104.81905396 71.22868164 -104.81905396 71.22868164 -106.60443115 70.68792725 C-107.44739746 70.32199463 -108.29036377 69.95606201 -109.15887451 69.57904053 C-110.15887451 66.57904053 -110.15887451 66.57904053 -108.67449951 63.05950928 C-107.93483359 61.62042445 -107.17842044 60.18987109 -106.40887451 58.76654053 C-106.00201416 58.00969971 -105.59515381 57.25285889 -105.17596436 56.4730835 C-91.14478437 31.16599496 -67.65867649 12.03022716 -40.07684326 3.20404053 C-36.4517777 2.18857417 -32.84755101 1.32836763 -29.15887451 0.57904053 C-27.51338623 0.24452881 -27.51338623 0.24452881 -25.83465576 -0.09674072 C-5.5986862 -3.68502483 -5.5986862 -3.68502483 0 0 Z " fill="#FDD843" transform="translate(133.15887451171875,16.42095947265625)"/>
<path d="M0 0 C0.33 0 0.66 0 1 0 C1 39.6 1 79.2 1 120 C-20.04990766 120 -20.04990766 120 -26.0625 118.875 C-27.15183838 118.68248657 -27.15183838 118.68248657 -28.26318359 118.48608398 C-39.45301697 116.33474983 -49.9067074 112.20400275 -60 107 C-58.65544302 103.45565573 -57.08771656 100.19200807 -55.234375 96.88671875 C-54.68136719 95.89865234 -54.12835938 94.91058594 -53.55859375 93.89257812 C-52.66333984 92.30606445 -52.66333984 92.30606445 -51.75 90.6875 C-51.12738281 89.57955078 -50.50476563 88.47160156 -49.86328125 87.33007812 C-45.07886134 78.84423074 -40.18494065 70.42499183 -35.25292969 62.02416992 C-30.48177556 53.87798908 -25.86565302 45.65127514 -21.27636719 37.40161133 C-16.44451151 28.73851153 -11.47117329 20.16279888 -6.44140625 11.61328125 C-5.88839844 10.67226562 -5.33539063 9.73125 -4.765625 8.76171875 C-4.27868164 7.93631592 -3.79173828 7.11091309 -3.29003906 6.26049805 C-2.11650345 4.20414562 -1.03445976 2.12906964 0 0 Z " fill="#FE7B4A" transform="translate(134,121)"/>
<path d="M0 0 C4.09965902 0.58566557 4.99851035 1.29520104 7.5 4.5 C7.98101807 7.10699463 7.98101807 7.10699463 7.95410156 10.09472656 C7.95379944 11.21558655 7.95349731 12.33644653 7.95318604 13.49127197 C7.93254089 14.69555847 7.91189575 15.89984497 7.890625 17.140625 C7.88496521 18.37794373 7.87930542 19.61526245 7.87347412 20.89007568 C7.85488251 24.17177936 7.81897498 27.45269281 7.7746582 30.73413086 C7.73366165 34.08570067 7.71579501 37.43730444 7.6953125 40.7890625 C7.65119904 47.35968391 7.58425077 53.92977732 7.5 60.5 C8.31984375 60.45359375 9.1396875 60.4071875 9.984375 60.359375 C11.06203125 60.32328125 12.1396875 60.2871875 13.25 60.25 C14.31734375 60.20359375 15.3846875 60.1571875 16.484375 60.109375 C20.16888259 60.58664282 21.250131 61.61461064 23.5 64.5 C24.06640625 66.5 24.06640625 66.5 24.0625 68.5 C24.08441406 69.16 24.10632813 69.82 24.12890625 70.5 C23.10812401 73.74621433 21.35693477 74.70868355 18.5 76.5 C15.39895905 77.08405996 12.34751684 77.04681692 9.19921875 77.01757812 C8.27017731 77.0245874 7.34113586 77.03159668 6.38394165 77.03881836 C3.31815553 77.05639911 0.25329523 77.04477509 -2.8125 77.03125 C-4.9457212 77.03394488 -7.0789412 77.03782727 -9.2121582 77.04284668 C-13.6809459 77.04874185 -18.14941359 77.04017794 -22.61816406 77.02148438 C-28.34499077 76.99869508 -34.07106763 77.01181803 -39.79786682 77.03577423 C-44.20224655 77.05023153 -48.60644864 77.04562647 -53.01083374 77.03526306 C-55.12234587 77.0325956 -57.23387416 77.03586619 -59.34536743 77.04518127 C-62.29708549 77.05534549 -65.24759096 77.03984708 -68.19921875 77.01757812 C-69.07105804 77.02567505 -69.94289734 77.03377197 -70.84115601 77.04211426 C-74.93089545 76.98498146 -76.99823266 76.81461134 -80.54199219 74.59265137 C-82.65502392 72.33431577 -83.16335439 71.53749701 -83.0625 68.5 C-82.85169534 65.80973107 -82.46569723 64.43466139 -81.1875 62 C-78.05044413 60.2490851 -76.38390169 60.34379953 -72.83203125 60.40625 C-71.33700073 60.42655273 -71.33700073 60.42655273 -69.81176758 60.44726562 C-69.04888428 60.46466797 -68.28600098 60.48207031 -67.5 60.5 C-67.52094727 59.73333008 -67.54189453 58.96666016 -67.56347656 58.17675781 C-67.64665158 54.7013054 -67.69866575 51.22606237 -67.75 47.75 C-67.78351563 46.5434375 -67.81703125 45.336875 -67.8515625 44.09375 C-67.86445313 42.93359375 -67.87734375 41.7734375 -67.890625 40.578125 C-67.91157227 39.50981445 -67.93251953 38.44150391 -67.95410156 37.34082031 C-67.38625495 33.78842075 -66.3445301 32.64067664 -63.5 30.5 C-60 30 -60 30 -56.5 30.5 C-53.6554699 32.64067664 -52.61374505 33.78842075 -52.04589844 37.34082031 C-52.07731934 38.94328613 -52.07731934 38.94328613 -52.109375 40.578125 C-52.12871094 42.31835938 -52.12871094 42.31835938 -52.1484375 44.09375 C-52.18195313 45.3003125 -52.21546875 46.506875 -52.25 47.75 C-52.26804688 48.97203125 -52.28609375 50.1940625 -52.3046875 51.453125 C-52.35181187 54.46908455 -52.42355428 57.48464119 -52.5 60.5 C-47.55 60.5 -42.6 60.5 -37.5 60.5 C-37.52094727 59.27893555 -37.54189453 58.05787109 -37.56347656 56.79980469 C-37.63590159 52.26753476 -37.68180888 47.73531593 -37.71972656 43.20263672 C-37.73983632 41.24128619 -37.76712818 39.27999556 -37.80175781 37.31884766 C-37.85030421 34.49887305 -37.87297486 31.67969135 -37.890625 28.859375 C-37.91127014 27.98319519 -37.93191528 27.10701538 -37.95318604 26.20428467 C-37.95541739 20.14408678 -37.95541739 20.14408678 -35.69433594 16.94628906 C-32.46756038 14.81951799 -30.27493079 14.96072417 -26.5 15.5 C-24.30566406 16.94628906 -24.30566406 16.94628906 -22.5 19.5 C-21.94823295 22.6243295 -22.03482267 25.69537413 -22.109375 28.859375 C-22.11503479 29.76375305 -22.12069458 30.6681311 -22.12652588 31.59991455 C-22.14888752 34.48381853 -22.19908314 37.36647261 -22.25 40.25 C-22.27006529 42.20701329 -22.28831601 44.16404608 -22.3046875 46.12109375 C-22.34875161 50.91454289 -22.41777748 55.70705965 -22.5 60.5 C-17.55 60.5 -12.6 60.5 -7.5 60.5 C-7.5314209 57.98681152 -7.5314209 57.98681152 -7.56347656 55.42285156 C-7.63581578 49.21330291 -7.68177835 43.00379158 -7.71972656 36.79394531 C-7.737599 34.10495534 -7.76544475 31.41634174 -7.80175781 28.72753906 C-7.85021615 24.86512439 -7.87295626 21.00328792 -7.890625 17.140625 C-7.91127014 15.9363385 -7.93191528 14.732052 -7.95318604 13.49127197 C-7.95363922 11.80998199 -7.95363922 11.80998199 -7.95410156 10.09472656 C-7.96298401 9.10877502 -7.97186646 8.12282349 -7.98101807 7.10699463 C-7.09858292 2.32442232 -4.65317486 0.66473927 0 0 Z " fill="#61719B" transform="translate(232.5,29.5)"/>
<path d="M0 0 C4.10123496 0.58589071 5.00082864 1.29024769 7.5 4.5 C7.98101807 7.1449585 7.98101807 7.1449585 7.95410156 10.18652344 C7.95379944 11.32740417 7.95349731 12.46828491 7.95318604 13.64373779 C7.93254089 14.86989807 7.91189575 16.09605835 7.890625 17.359375 C7.88496521 18.61888977 7.87930542 19.87840454 7.87347412 21.17608643 C7.85488047 24.51709024 7.81897328 27.85699467 7.7746582 31.19769287 C7.73366502 34.60956339 7.71545459 38.02154769 7.6953125 41.43359375 C7.65119639 48.12273839 7.58214071 54.81121856 7.5 61.5 C2.55 61.5 -2.4 61.5 -7.5 61.5 C-7.59041729 54.13725025 -7.66378212 46.77480453 -7.70724869 39.41161728 C-7.72811201 35.9924632 -7.75640505 32.57370906 -7.80175781 29.15478516 C-7.85358618 25.22303069 -7.87295578 21.29143743 -7.890625 17.359375 C-7.91127014 16.13321472 -7.93191528 14.90705444 -7.95318604 13.64373779 C-7.95348816 12.50285706 -7.95379028 11.36197632 -7.95410156 10.18652344 C-7.96742523 8.68094879 -7.96742523 8.68094879 -7.98101807 7.1449585 C-7.10657478 2.33668546 -4.68182555 0.66883222 0 0 Z " fill="#FD435B" transform="translate(232.5,29.5)"/>
<path d="M0 0 C2.19433594 1.43261719 2.19433594 1.43261719 4 4 C4.55351213 7.19669465 4.46500958 10.34243193 4.390625 13.578125 C4.38496521 14.5046991 4.37930542 15.43127319 4.37347412 16.38592529 C4.35110921 19.34114562 4.30091262 22.29514705 4.25 25.25 C4.22993515 27.2551908 4.21168435 29.26040064 4.1953125 31.265625 C4.151244 36.17755194 4.08221555 41.08856942 4 46 C-0.95 46 -5.9 46 -11 46 C-11.09890033 40.09184657 -11.17148371 34.18417528 -11.21972656 28.27539062 C-11.23983805 26.26553962 -11.26713115 24.25574709 -11.30175781 22.24609375 C-11.35029634 19.35662404 -11.37297322 16.46792809 -11.390625 13.578125 C-11.41127014 12.68007141 -11.43191528 11.78201782 -11.45318604 10.85675049 C-11.4554178 4.64753564 -11.4554178 4.64753564 -9.19433594 1.43261719 C-5.96513586 -0.67563226 -3.7678731 -0.53826759 0 0 Z " fill="#69A8FD" transform="translate(206,45)"/>
<path d="M0 0 C2.90337939 2.16687461 3.89397407 3.31527769 4.45410156 6.93261719 C4.4331543 8.04282227 4.41220703 9.15302734 4.390625 10.296875 C4.37773437 11.50214844 4.36484375 12.70742187 4.3515625 13.94921875 C4.31804687 15.20347656 4.28453125 16.45773438 4.25 17.75 C4.23195312 19.01972656 4.21390625 20.28945312 4.1953125 21.59765625 C4.14817812 24.73209258 4.07643558 27.8661413 4 31 C-0.95 31 -5.9 31 -11 31 C-11.1077394 26.58268479 -11.18720629 22.16798606 -11.25 17.75 C-11.28351563 16.49574219 -11.31703125 15.24148437 -11.3515625 13.94921875 C-11.36445313 12.74394531 -11.37734375 11.53867188 -11.390625 10.296875 C-11.41157227 9.18666992 -11.43251953 8.07646484 -11.45410156 6.93261719 C-10.42900098 0.31245148 -6.09872258 -0.87124608 0 0 Z " fill="#F7BD2D" transform="translate(176,60)"/>
</svg>
